<?xml version="1.0" encoding="UTF-8" standalone="no"?>
<svg
   xmlns:dc="http://purl.org/dc/elements/1.1/"
   xmlns:cc="http://creativecommons.org/ns#"
   xmlns:rdf="http://www.w3.org/1999/02/22-rdf-syntax-ns#"
   xmlns:svg="http://www.w3.org/2000/svg"
   xmlns="http://www.w3.org/2000/svg"
   xmlns:sodipodi="http://sodipodi.sourceforge.net/DTD/sodipodi-0.dtd"
   xmlns:inkscape="http://www.inkscape.org/namespaces/inkscape"
   height="100px"
   width="100px"
   fill="#4D4D4D"
   version="1.1"
   x="0px"
   y="0px"
   viewBox="0 0 100 100"
   enable-background="new 0 0 100 100"
   xml:space="preserve"
   id="svg8"
   sodipodi:docname="python-module.svg"
   inkscape:version="0.92.3 (2405546, 2018-03-11)"><metadata
     id="metadata14"><rdf:RDF><cc:Work
         rdf:about=""><dc:format>image/svg+xml</dc:format><dc:type
           rdf:resource="http://purl.org/dc/dcmitype/StillImage" /></cc:Work></rdf:RDF></metadata><defs
     id="defs12" /><sodipodi:namedview
     pagecolor="#ffffff"
     bordercolor="#666666"
     borderopacity="1"
     objecttolerance="10"
     gridtolerance="10"
     guidetolerance="10"
     inkscape:pageopacity="0"
     inkscape:pageshadow="2"
     inkscape:window-width="1451"
     inkscape:window-height="929"
     id="namedview10"
     showgrid="false"
     inkscape:zoom="2.36"
     inkscape:cx="50"
     inkscape:cy="50"
     inkscape:window-x="67"
     inkscape:window-y="27"
     inkscape:window-maximized="0"
     inkscape:current-layer="svg8" /><path
     d="M 78.09322,43.389831 H 73.135593 V 31.822034 c 0,-0.438254 -0.174508,-0.858661 -0.483864,-1.168678 L 62.736475,20.738102 C 62.426458,20.428085 62.006051,20.254237 61.567797,20.254237 H 28.516949 c -0.912864,0 -1.652542,0.739678 -1.652542,1.652543 V 43.389831 H 21.90678 c -0.912865,0 -1.652543,0.739677 -1.652543,1.652542 v 23.135593 c 0,0.912865 0.739678,1.652542 1.652543,1.652542 h 4.957627 v 8.262712 c 0,0.912865 0.739678,1.652543 1.652542,1.652543 h 42.966102 c 0.912864,0 1.652542,-0.739678 1.652542,-1.652543 v -8.262712 h 4.957627 c 0.912865,0 1.652543,-0.739677 1.652543,-1.652542 V 45.042373 c 0,-0.912865 -0.739678,-1.652542 -1.652543,-1.652542 z M 63.220339,25.896017 67.493153,30.169492 H 63.220339 Z M 30.169492,23.559322 h 29.745762 v 9.915254 h 9.915254 v 9.915255 H 30.169492 Z M 69.830508,76.440678 H 30.169492 v -6.61017 h 39.661016 z m 6.61017,-9.915254 H 23.559322 V 46.694915 h 52.881356 z"
     id="path2"
     inkscape:connector-curvature="0"
     style="stroke-width:0.66101694" /><path
     d="m 42.976695,59.915254 h 1.652542 c 2.733966,0 4.957627,-2.223661 4.957627,-4.957627 C 49.586864,52.223661 47.363203,50 44.629237,50 h -3.305084 c -0.912865,0 -1.652543,0.739678 -1.652543,1.652542 v 11.567797 h 3.305085 z m 0,-6.610169 h 1.652542 c 0.911543,0 1.652543,0.741661 1.652543,1.652542 0,0.910881 -0.741,1.652542 -1.652543,1.652542 h -1.652542 z"
     id="path4"
     inkscape:connector-curvature="0"
     style="stroke-width:0.66101694" /><path
     d="M 60.32839,58.262712 V 50 h -3.305085 v 4.957627 c -1.822424,0 -3.305085,-1.482661 -3.305085,-3.305085 V 50 h -3.305084 v 1.652542 c 0,3.644848 2.965322,6.61017 6.610169,6.61017 0,0.910881 -0.741,1.652542 -1.652542,1.652542 h -4.957627 v 3.305085 h 4.957627 c 2.733966,0 4.957627,-2.223661 4.957627,-4.957627 z"
     id="path6"
     inkscape:connector-curvature="0"
     style="stroke-width:0.66101694" /></svg>